<svg width="176" height="45" xmlns="http://www.w3.org/2000/svg" xmlns:xlink="http://www.w3.org/1999/xlink"><defs><path id="a" d="M.258.104h23.495v27.738H.258z"/><path id="c" d="M.016.047h34.732V7.95H.016z"/></defs><g fill="none" fill-rule="evenodd"><path fill="#FFF" d="M53.687 18.877l-4.628 5.038-4.746-5.085V27H41V10l8.012 8.618L57 10v17h-3.313v-8.123M60 14h11v3.188h-7.926v1.966h7.493v3.189h-7.493v2.42H71V28H60V14M81.61 28h-3.128V17.188H74V14h12v3.188h-4.39V28M94.692 17.38c-.346-.207-.782-.311-1.309-.311h-3.36v2.637h3.338c.571 0 1.023-.1 1.353-.3.331-.2.497-.54.497-1.02 0-.463-.173-.798-.52-1.006zm3.01 3.404a4.052 4.052 0 0 1-1.612 1.51c.226.432.463.895.71 1.39a316.32 316.32 0 0 0 1.512 2.973c.248.48.477.927.688 1.343h-3.338l-2.684-5.13h-2.955V28H87V14h6.429c.676 0 1.311.088 1.906.264.593.175 1.109.443 1.545.803.436.36.778.81 1.026 1.354s.372 1.183.372 1.918c0 .99-.191 1.806-.575 2.445zM105.482 22.486c.202.464.477.867.825 1.211.347.343.76.615 1.237.815.477.2.983.3 1.516.3.534 0 1.036-.1 1.505-.3.469-.2.882-.472 1.237-.815.356-.344.635-.747.837-1.21a3.67 3.67 0 0 0 .304-1.487c0-.527-.101-1.027-.304-1.498a3.711 3.711 0 0 0-.837-1.223 4.045 4.045 0 0 0-1.237-.815c-.47-.2-.97-.3-1.505-.3-.533 0-1.039.1-1.516.3-.477.2-.89.472-1.237.815a3.809 3.809 0 0 0-.825 1.223 3.76 3.76 0 0 0-.304 1.498c0 .527.101 1.023.304 1.486zm-2.924-4.207a6.952 6.952 0 0 1 1.528-2.23 7.337 7.337 0 0 1 2.257-1.497 6.882 6.882 0 0 1 2.742-.552c1.148 0 2.155.2 3.02.6.866.399 1.586.926 2.16 1.581a6.707 6.707 0 0 1 1.298 2.242 7.806 7.806 0 0 1 0 5.154 6.703 6.703 0 0 1-1.298 2.241c-.574.656-1.294 1.183-2.16 1.583-.865.4-1.872.599-3.02.599-.97 0-1.885-.184-2.742-.551a7.342 7.342 0 0 1-2.257-1.499 6.958 6.958 0 0 1-1.528-2.23A6.744 6.744 0 0 1 102 21c0-.959.186-1.866.558-2.72z"/><path d="M129.377 14.323a1.958 1.958 0 0 0-.618-.644c-.258-.17-.565-.3-.92-.388a4.658 4.658 0 0 0-1.14-.134h-5.306v3.91h5.307c.904 0 1.615-.121 2.132-.364.517-.243.775-.729.775-1.457a1.78 1.78 0 0 0-.23-.923zm3.163 3.278a4.22 4.22 0 0 1-1.297 1.627c-.557.422-1.224.733-1.999.935-.775.203-1.623.304-2.544.304h-5.307V27H118V10h8.82c.873 0 1.689.11 2.448.328.76.218 1.414.546 1.963.983.55.437.981.984 1.296 1.64.315.655.473 1.42.473 2.295 0 .906-.153 1.691-.46 2.355zM135 14h11v3.188h-7.925v1.966h7.492v3.189h-7.492v2.42H146V28h-11V14M156.206 17.012c-.824 0-1.467.082-1.93.247-.464.165-.695.38-.695.647 0 .141.099.286.296.435a3.3 3.3 0 0 0 .772.412c.317.125.67.243 1.055.353.386.11.76.212 1.12.306.669.172 1.346.364 2.033.576a8.695 8.695 0 0 1 1.865.812c.558.33 1.008.733 1.351 1.212.344.478.515 1.07.515 1.776 0 .69-.167 1.294-.502 1.812-.334.518-.793.957-1.377 1.317-.583.361-1.278.632-2.084.812-.806.18-1.673.271-2.6.271a9.52 9.52 0 0 1-3.576-.67c-1.116-.448-2.265-1.189-3.449-2.224l2.96-2.07a10.343 10.343 0 0 0 1.89 1.435c.627.36 1.378.54 2.253.54.875 0 1.596-.113 2.162-.34.566-.228.849-.499.849-.812 0-.188-.094-.353-.283-.494a3.135 3.135 0 0 0-.734-.389 9.137 9.137 0 0 0-1.042-.329c-.394-.102-.798-.2-1.21-.294a36.987 36.987 0 0 1-2.045-.53 8.396 8.396 0 0 1-1.84-.764 4.217 4.217 0 0 1-1.339-1.177c-.343-.47-.515-1.066-.515-1.788 0-.517.116-1.023.348-1.517.232-.495.592-.93 1.08-1.306.49-.377 1.116-.683 1.88-.918.763-.235 1.685-.353 2.766-.353 1.235 0 2.389.22 3.461.659 1.073.44 2.192 1.16 3.359 2.165l-2.83 2.047-.516-.518c-.926-.894-2.076-1.341-3.448-1.341M171.611 28h-3.128V17.188H164V14h12v3.188h-4.389V28" fill="#58B146"/><path d="M42.093 33.43c.02.157.036.321.046.492.01.172.016.399.016.681V40H41v-8h1.108l3.958 5.207L49.753 32H51v8h-1.247v-5.397c0-.07.009-.248.027-.533.018-.285.03-.498.035-.64-.103.207-.194.381-.274.523-.08.14-.15.255-.211.34l-3.11 4.45h-.347l-3.233-4.328a.537.537 0 0 1-.039-.054 3.43 3.43 0 0 1-.508-.93M58.83 37.01h4.206l-2.106-4.094-2.1 4.094zM56 40l4.265-8h1.396L66 40h-1.434l-.998-1.968h-5.284L57.286 40H56zM70 40v-8h.76l5.418 5.351c.124.121.255.268.394.439.14.172.282.36.428.568a10.602 10.602 0 0 1-.082-.807c-.018-.28-.027-.667-.027-1.161V32H78v8h-.678l-5.562-5.563a4.31 4.31 0 0 1-.123-.12 3.403 3.403 0 0 1-.61-.78c.028.242.048.5.062.775.014.275.02.6.02.973V40H70M86.83 37.01h4.206l-2.106-4.094-2.1 4.094zM84 40l4.265-8h1.397L94 40h-1.434l-.998-1.968h-5.284L85.286 40H84zM105.807 33.09h-5.614v5.797h5.614v-2.346h-2.902V35.52H107v2.589c0 .732-.117 1.23-.352 1.495-.235.265-.678.397-1.33.397h-4.637c-.655 0-1.1-.134-1.332-.401-.233-.268-.349-.765-.349-1.491v-4.216c0-.726.116-1.223.349-1.49.233-.268.677-.402 1.332-.402h4.638c.641 0 1.082.13 1.322.39s.359.73.359 1.411v.197l-1.193.265V33.09M114 40v-8h7.938v1.075h-6.558V35.3h4.008v1.06h-4.008v2.543H122V40h-8M127.093 33.43c.02.157.036.321.046.492.01.172.016.399.016.681V40H126v-8h1.108l3.958 5.207L134.753 32H136v8h-1.247v-5.397c0-.07.009-.248.027-.533.018-.285.03-.498.035-.64-.103.207-.194.381-.274.523-.08.14-.15.255-.211.34l-3.11 4.45h-.347l-3.233-4.328a.491.491 0 0 1-.039-.054 3.422 3.422 0 0 1-.508-.93M141 40v-8h7.938v1.075h-6.558V35.3h4.008v1.06h-4.008v2.543H149V40h-8M153 40v-8h.76l5.418 5.351c.124.121.255.268.394.439.14.172.282.36.428.568a10.601 10.601 0 0 1-.082-.807c-.018-.28-.027-.667-.027-1.161V32H161v8h-.678l-5.562-5.563a4.003 4.003 0 0 1-.123-.12 3.405 3.405 0 0 1-.61-.78c.028.242.048.5.062.775.014.275.02.6.02.973V40H153M171.608 33.09V40h-1.23v-6.91H167V32h8v1.09h-3.392" fill="#FFF"/><path d="M30 32a36.561 36.561 0 0 0 1.493-.166c.232-.91.403-1.858.507-2.834-.447.056-.947.109-1.495.158A17.55 17.55 0 0 1 30 32" fill="#0A0B09"/><path d="M8 35c2.024 4.186 5.748 7 10 7s7.976-2.814 10-7c-2.846.175-6.33.271-10 .271S10.847 35.175 8 35" fill="#FFF"/><path d="M30.306 28a47.871 47.871 0 0 0 1.692-.166l.002-.206c0-.896-.067-1.774-.196-2.628-.519.067-1.12.129-1.804.186.185.906.29 1.848.306 2.814M29 22.677c-.956-2.737-2.623-5.088-4.814-6.677L18 22.215 11.813 16C9.623 17.588 7.956 19.938 7 22.674c2.633.185 6.311.326 11 .326 4.531 0 8.274-.135 11-.323" fill="#0A0B09"/><path d="M5.035 21.997c1.073-3.292 3.08-6.013 5.625-7.68l5.856 6.08 5.855-6.08c2.546 1.668 4.554 4.39 5.626 7.683A46.523 46.523 0 0 0 30 21.795a1.004 1.004 0 0 1-.005-.156c-1.085-4.175-3.452-7.661-6.54-9.776-.466-.32-.948-.608-1.445-.863l-5.494 4.994L11.02 11c-.497.255-.979.542-1.444.863-3.125 2.14-5.51 5.684-6.577 9.926.553.07 1.232.14 2.035.208M29.675 35.121l-.507.04c-2.147 4.935-6.343 8.287-11.168 8.287-4.825 0-9.02-3.352-11.168-8.288A61.443 61.443 0 0 1 5 35c2.386 5.929 7.31 10 13 10s10.614-4.071 13-10c-.412.042-.851.083-1.325.121M28.356 31.707A13.13 13.13 0 0 0 29 29c-3.156.198-7.209.307-11.5.307S9.156 29.198 6 29c.121.939.339 1.844.643 2.705C9.218 31.87 12.85 32 17.5 32c4.491 0 8.188-.123 10.856-.293M2 27.63l.002.204c.476.056 1.04.112 1.693.166.015-.966.12-1.908.305-2.814A41.995 41.995 0 0 1 2.195 25 17.675 17.675 0 0 0 2 27.63M4.495 29.158A42.687 42.687 0 0 1 3 29c.104.975.275 1.923.507 2.833.419.057.916.113 1.493.167a17.612 17.612 0 0 1-.505-2.842" fill="#FFF"/><g transform="translate(6)"><mask id="b" fill="#fff"><use xlink:href="#a"/></mask><path d="M.592 24.236a17.795 17.795 0 0 0-.334 3.23c2.755.21 6.685.376 11.748.376 4.885 0 8.89-.157 11.747-.373a17.824 17.824 0 0 0-.334-3.233c-3.082.236-7.123.367-11.413.367-4.291 0-8.332-.13-11.414-.367" fill="#FFF" mask="url(#b)"/><path d="M16.76.58a.859.859 0 0 0-.764-.476.855.855 0 0 0-.838.608l-.003-.001a37.715 37.715 0 0 0-.684 2.792c-.011.055.059.09.1.05l2.03-2.026-.003-.001A.818.818 0 0 0 16.76.58M7.251.58a.86.86 0 0 1 .764-.476.854.854 0 0 1 .838.608l.002-.001c.342 1.171.594 2.347.685 2.792.011.055-.058.09-.099.05l-2.03-2.026.002-.001A.818.818 0 0 1 7.25.58M7.66 8.524s-.002 0 0 .002l.003.006c.136.831.52 1.581 1.073 2.178l.008.009.001.002.002.001.002.002.295.289c.005.001.01.005.012.01l2.947 2.863 2.932-2.85.027-.023c.105-.092.204-.189.298-.29a4.193 4.193 0 0 0 1.145-2.876c0-2.362-1.97-4.277-4.4-4.277-2.43 0-4.4 1.915-4.4 4.277 0 .23.019.455.056.676l-.001.001" fill="#0A0B09" mask="url(#b)"/><path d="M9.441 3.553c.04.04.11.005.099-.05A37.576 37.576 0 0 0 8.855.71l-.002.001a.854.854 0 0 0-.838-.608.86.86 0 0 0-.764.476.818.818 0 0 0 .162.946l-.002.001 2.03 2.026M7.66 8.526l.003.006c.136.831.52 1.581 1.073 2.178l.008.009.001.002.002.001.002.002.295.289c.005.001.01.005.012.01l2.947 2.863 2.932-2.85.027-.023c.105-.092.204-.189.298-.29a4.193 4.193 0 0 0 1.145-2.876c0-2.362-1.97-4.277-4.4-4.277-2.43 0-4.4 1.915-4.4 4.277 0 .23.019.455.056.676l-.001.001s-.002 0 0 .002M16.76.58a.859.859 0 0 0-.764-.476.855.855 0 0 0-.838.608l-.003-.001a37.715 37.715 0 0 0-.684 2.792c-.011.055.059.09.1.05l2.03-2.026-.003-.001A.818.818 0 0 0 16.76.58" fill="#58B146" mask="url(#b)"/></g><path d="M27.37 31.707A13.38 13.38 0 0 0 28 29c-3.084.198-7.045.307-11.239.307-3.142 0-6.151-.061-8.761-.175a19.85 19.85 0 0 0 2.44 2.775c1.83.057 3.938.093 6.321.093 4.389 0 8-.123 10.609-.293M30.306 28a47.37 47.37 0 0 0 1.69-.166c0-.068.004-.137.004-.206 0-.896-.067-1.774-.196-2.628-.519.067-1.12.129-1.804.186.185.906.29 1.848.306 2.814M30 32a36.984 36.984 0 0 0 1.49-.166c.233-.911.406-1.858.51-2.834-.447.056-.946.109-1.494.158A17.547 17.547 0 0 1 30 32M29 22.677c-.956-2.737-2.623-5.088-4.814-6.677l-6.187 6.215L11.812 16C9.622 17.588 7.956 19.938 7 22.674c2.633.185 6.311.326 11 .326 4.53 0 8.274-.135 11-.323M7.117 25c-.042.182-.082.364-.117.548.335.767.72 1.507 1.144 2.218 2.602.136 6.027.234 10.25.234 4.827 0 8.784-.13 11.606-.31a12.576 12.576 0 0 0-.33-2.69c-3.045.197-7.037.305-11.276.305-4.24 0-8.231-.108-11.277-.305M18.018 35.29A188.9 188.9 0 0 1 14 35.248C16.942 37.624 20.416 39 24.14 39c.442 0 .88-.021 1.314-.06 1.01-1.11 1.871-2.444 2.546-3.94-2.842.188-6.32.29-9.982.29" fill="#58B146"/><path d="M6.185 21.997c1.067-3.291 3.058-6.013 5.587-7.68l5.822 6.08 5.822-6.08c2.531 1.668 4.526 4.39 5.593 7.683A45.99 45.99 0 0 0 31 21.795a1.01 1.01 0 0 1-.005-.156c-1.08-4.175-3.432-7.661-6.502-9.776-.463-.32-.942-.608-1.436-.863l-5.463 4.994L12.132 11c-.494.255-.973.542-1.436.863C8.246 13.55 6.254 16.113 5 19.2c.129.933.306 1.846.524 2.737l.66.06M29.392 35.123l-.62.04A16.136 16.136 0 0 1 26 39c.985-.14 1.952-.341 2.895-.603A18.558 18.558 0 0 0 31 35c-.5.043-1.033.084-1.608.123" fill="#58B146"/><path d="M33.226 21.898h.001-.001zM17.5 23c-4.305 0-8.354-.098-11.401-.276-1.492-.087-2.666-.19-3.49-.303C1.616 22.284 1 22.125 1 21.756c0-.233-.103-.545 1.695-.752.232-.027.45.086.487.253.038.166-.126.304-.352.35-.362.071-.41.081-.621.13 1.587.305 7.047.653 15.29.653 8.051 0 13.447-.332 15.174-.631a12.641 12.641 0 0 0-.55-.084c-.232-.03-.385-.19-.342-.355.042-.166.264-.275.495-.245 1.091.144 1.723.301 1.723.68 0 .37-.615.529-1.608.666-.825.114-2 .216-3.49.303-3.048.178-7.097.276-11.401.276z" fill="#FFF"/><g transform="translate(0 27)"><mask id="d" fill="#fff"><use xlink:href="#c"/></mask><path d="M33.101 6.49h.002-.002zM17.374 7.95c-4.306 0-8.355-.13-11.402-.365-1.492-.116-2.667-.25-3.491-.402-.993-.181-1.609-.392-1.609-.881 0-.307-.068-.691 1.73-.965a.423.423 0 0 1 .488.335.407.407 0 0 1-.353.463c-.418.063-.445.078-.656.143 1.588.404 7.048.864 15.293.864 8.052 0 13.448-.439 15.175-.836a9.571 9.571 0 0 0-.55-.11.406.406 0 0 1-.342-.471.424.424 0 0 1 .495-.324c1.092.19 1.724.398 1.724.901 0 .489-.616.7-1.609.881-.825.151-2 .286-3.49.402-3.048.236-7.098.365-11.403.365zM33.932 1.3h.002-.002zM17.374 2.839c-4.533 0-8.796-.137-12.005-.385-1.57-.121-2.807-.264-3.676-.422C.648 1.839 0 1.617 0 1.103 0 .779.022.34 1.915.052a.446.446 0 0 1 .513.353c.04.232-.131.43-.37.487-.446.107-.563.117-.785.185 1.671.425 7.42.91 16.1.91 8.478 0 14.16-.462 15.978-.88a10.26 10.26 0 0 0-.58-.117.428.428 0 0 1-.36-.495.447.447 0 0 1 .522-.342c1.15.2 1.815.42 1.815.95 0 .514-.648.736-1.694.927-.868.16-2.105.302-3.675.423-3.209.248-7.472.385-12.005.385z" fill="#FFF" mask="url(#d)"/></g></g></svg>